<svg width="28" height="28" viewBox="0 0 28 28" fill="none" xmlns="http://www.w3.org/2000/svg">
<g clip-path="url(#clip0_5369_4171)">
<path d="M3.5 15.167H5.83333V12.8337H3.5V15.167ZM3.5 19.8337H5.83333V17.5003H3.5V19.8337ZM3.5 10.5003H5.83333V8.16699H3.5V10.5003ZM8.16667 15.167H24.5V12.8337H8.16667V15.167ZM8.16667 19.8337H24.5V17.5003H8.16667V19.8337ZM8.16667 8.16699V10.5003H24.5V8.16699H8.16667ZM3.5 15.167H5.83333V12.8337H3.5V15.167ZM3.5 19.8337H5.83333V17.5003H3.5V19.8337ZM3.5 10.5003H5.83333V8.16699H3.5V10.5003ZM8.16667 15.167H24.5V12.8337H8.16667V15.167ZM8.16667 19.8337H24.5V17.5003H8.16667V19.8337ZM8.16667 8.16699V10.5003H24.5V8.16699H8.16667Z" fill="#FCFCFC"/>
</g>
<defs>
<clipPath id="clip0_5369_4171">
<rect width="28" height="28" fill="white"/>
</clipPath>
</defs>
</svg>
