<svg width="119" height="24" viewBox="0 0 119 24" fill="none" xmlns="http://www.w3.org/2000/svg">
<path d="M12.9033 23.8C10.4975 23.8 8.33017 23.2878 6.40124 22.2635C4.49398 21.2391 2.98768 19.8224 1.88234 18.0135C0.798671 16.2045 0.256836 14.1667 0.256836 11.9C0.256836 9.63333 0.798671 7.59551 1.88234 5.78654C2.98768 3.97757 4.49398 2.5609 6.40124 1.53654C8.33017 0.51218 10.4975 0 12.9033 0C15.309 0 17.4655 0.51218 19.3728 1.53654C21.3017 2.5609 22.808 3.97757 23.8917 5.78654C24.997 7.59551 25.5497 9.63333 25.5497 11.9C25.5497 14.1667 24.997 16.2045 23.8917 18.0135C22.808 19.8224 21.3017 21.2391 19.3728 22.2635C17.4655 23.2878 15.309 23.8 12.9033 23.8ZM12.9033 18.4385C14.0519 18.4385 15.0923 18.166 16.0242 17.6212C16.9562 17.0763 17.6931 16.3135 18.2349 15.3327C18.7767 14.3301 19.0477 13.1859 19.0477 11.9C19.0477 10.6141 18.7767 9.48077 18.2349 8.5C17.6931 7.49744 16.9562 6.72372 16.0242 6.17885C15.0923 5.63397 14.0519 5.36154 12.9033 5.36154C11.7546 5.36154 10.7142 5.63397 9.78229 6.17885C8.85033 6.72372 8.11344 7.49744 7.5716 8.5C7.02977 9.48077 6.75885 10.6141 6.75885 11.9C6.75885 13.1859 7.02977 14.3301 7.5716 15.3327C8.11344 16.3135 8.85033 17.0763 9.78229 17.6212C10.7142 18.166 11.7546 18.4385 12.9033 18.4385Z" fill="url(#paint0_linear_5367_4100)"/>
<path d="M46.4115 11.4096C47.7119 11.8673 48.7305 12.5865 49.4674 13.5673C50.2043 14.5263 50.5728 15.6923 50.5728 17.0654C50.5728 19.0705 49.7709 20.6179 48.167 21.7077C46.5632 22.7974 44.2442 23.3423 41.2099 23.3423H28.9211V0.457692H40.5597C43.4639 0.457692 45.6746 1.00256 47.1917 2.09231C48.7089 3.16026 49.4674 4.60962 49.4674 6.44038C49.4674 7.53013 49.1965 8.5109 48.6547 9.38269C48.1345 10.2327 47.3868 10.9083 46.4115 11.4096ZM35.293 5.13269V9.54615H39.7144C41.8818 9.54615 42.9654 8.80513 42.9654 7.32308C42.9654 5.86282 41.8818 5.13269 39.7144 5.13269H35.293ZM40.6897 18.6673C42.9438 18.6673 44.0708 17.8936 44.0708 16.3462C44.0708 14.7987 42.9438 14.025 40.6897 14.025H35.293V18.6673H40.6897Z" fill="url(#paint1_linear_5367_4100)"/>
<path d="M64.4076 23.8C61.0266 23.8 58.3932 22.8737 56.5076 21.0212C54.6437 19.1686 53.7118 16.5423 53.7118 13.1423V0.457692H60.1488V12.9462C60.1488 16.6077 61.5901 18.4385 64.4726 18.4385C67.3335 18.4385 68.7639 16.6077 68.7639 12.9462V0.457692H75.1034V13.1423C75.1034 16.5423 74.1606 19.1686 72.275 21.0212C70.4111 22.8737 67.7887 23.8 64.4076 23.8Z" fill="url(#paint2_linear_5367_4100)"/>
<path d="M87.4616 23.8C85.6193 23.8 83.8313 23.5712 82.0974 23.1135C80.3635 22.6558 78.9548 22.0455 77.8711 21.2827L79.9843 16.5096C81.0029 17.1853 82.1841 17.7301 83.5278 18.1442C84.8716 18.5583 86.1937 18.7654 87.4941 18.7654C89.9648 18.7654 91.2002 18.1442 91.2002 16.9019C91.2002 16.2481 90.8426 15.7686 90.1274 15.4635C89.4338 15.1365 88.3068 14.7987 86.7463 14.45C85.0341 14.0795 83.6037 13.6872 82.455 13.2731C81.3063 12.8372 80.3202 12.1506 79.4966 11.2135C78.673 10.2763 78.2612 9.01218 78.2612 7.42115C78.2612 6.02628 78.6405 4.77308 79.3991 3.66154C80.1576 2.5282 81.2847 1.63462 82.7801 0.98077C84.2972 0.326923 86.1503 0 88.3393 0C89.8348 0 91.3086 0.17436 92.7607 0.523078C94.2128 0.850001 95.4916 1.34038 96.5969 1.99423L94.6138 6.8C92.4464 5.62308 90.3441 5.03462 88.3068 5.03462C87.0281 5.03462 86.0961 5.23077 85.511 5.62308C84.9258 5.99359 84.6332 6.48397 84.6332 7.09423C84.6332 7.70449 84.98 8.16218 85.6735 8.46731C86.3671 8.77244 87.4832 9.08846 89.022 9.41538C90.7559 9.7859 92.1864 10.1891 93.3134 10.625C94.4621 11.0391 95.4482 11.7147 96.2718 12.6519C97.1171 13.5673 97.5397 14.8205 97.5397 16.4115C97.5397 17.7846 97.1604 19.0269 96.4018 20.1385C95.6433 21.25 94.5054 22.1436 92.9883 22.8192C91.4711 23.4731 89.6289 23.8 87.4616 23.8Z" fill="url(#paint3_linear_5367_4100)"/>
<path d="M105.04 5.59038H98.0499V0.457692H118.434V5.59038H111.477V23.3423H105.04V5.59038Z" fill="url(#paint4_linear_5367_4100)"/>
<defs>
<linearGradient id="paint0_linear_5367_4100" x1="59.3453" y1="0" x2="59.3453" y2="23.8" gradientUnits="userSpaceOnUse">
<stop stop-color="#5F47EE"/>
<stop offset="1" stop-color="#89FFE3"/>
</linearGradient>
<linearGradient id="paint1_linear_5367_4100" x1="59.3453" y1="0" x2="59.3453" y2="23.8" gradientUnits="userSpaceOnUse">
<stop stop-color="#5F47EE"/>
<stop offset="1" stop-color="#89FFE3"/>
</linearGradient>
<linearGradient id="paint2_linear_5367_4100" x1="59.3453" y1="0" x2="59.3453" y2="23.8" gradientUnits="userSpaceOnUse">
<stop stop-color="#5F47EE"/>
<stop offset="1" stop-color="#89FFE3"/>
</linearGradient>
<linearGradient id="paint3_linear_5367_4100" x1="59.3453" y1="0" x2="59.3453" y2="23.8" gradientUnits="userSpaceOnUse">
<stop stop-color="#5F47EE"/>
<stop offset="1" stop-color="#89FFE3"/>
</linearGradient>
<linearGradient id="paint4_linear_5367_4100" x1="59.3453" y1="0" x2="59.3453" y2="23.8" gradientUnits="userSpaceOnUse">
<stop stop-color="#5F47EE"/>
<stop offset="1" stop-color="#89FFE3"/>
</linearGradient>
</defs>
</svg>
