<svg width="56" height="56" viewBox="0 0 56 56" fill="none" xmlns="http://www.w3.org/2000/svg">
<g clip-path="url(#clip0_5334_4095)">
<path fill-rule="evenodd" clip-rule="evenodd" d="M42.5896 51.1608C50.4452 46.2417 55.6742 37.6152 55.6742 27.777C55.6742 12.4624 43.0234 0.0556641 27.4086 0.0556641C19.3844 0.0556641 12.1312 3.32698 6.99857 8.58531H29.5773C39.1679 8.58531 46.9753 16.2426 46.9753 25.6446C46.9753 33.423 41.6258 40.0141 34.3244 42.0496L42.5896 51.1608ZM15.9625 34.3196H29.6255C34.3003 34.3196 38.0835 30.4183 38.1317 25.6446C38.1317 20.8466 34.3244 16.9453 29.6496 16.9453H2.10685C0.73333 20.2893 -0.0136719 23.9483 -0.0136719 27.8012C-0.0136719 43.4066 12.2998 56.0556 27.5049 56.0556C29.7701 56.0556 31.987 55.7649 34.0834 55.2317L15.9625 34.3196Z" fill="url(#paint0_linear_5334_4095)"/>
</g>
<defs>
<linearGradient id="paint0_linear_5334_4095" x1="27.8303" y1="0.0556641" x2="27.8303" y2="56.0556" gradientUnits="userSpaceOnUse">
<stop stop-color="#5F47EE"/>
<stop offset="1" stop-color="#89FFE3"/>
</linearGradient>
<clipPath id="clip0_5334_4095">
<rect width="55.6879" height="56" fill="white"/>
</clipPath>
</defs>
</svg>
