<svg width="24" height="24" viewBox="0 0 24 24" fill="none" xmlns="http://www.w3.org/2000/svg">
<path fill-rule="evenodd" clip-rule="evenodd" d="M11.9997 23.6663C18.443 23.6663 23.6663 18.443 23.6663 11.9997C23.6663 11.8199 23.6623 11.6412 23.6542 11.4634C23.6378 11.4631 23.6214 11.463 23.605 11.463C22.0382 11.463 20.7681 12.6696 20.7681 14.158V14.6072H20.2278H18.8769H18.3365V14.158C18.3365 12.6696 17.0664 11.463 15.4997 11.463C13.9329 11.463 12.6628 12.6696 12.6628 14.158V14.3854C14.9301 14.7167 16.6664 16.5781 16.6664 18.8247V19.2738H14.7751V18.8247C14.7751 17.3363 13.505 16.1297 11.9383 16.1297C10.3715 16.1297 9.10144 17.3363 9.10144 18.8247V19.2738H8.56109H7.21022H6.66986V18.8247C6.66986 17.3363 5.39976 16.1297 3.83302 16.1297C2.90262 16.1297 2.07683 16.5552 1.55951 17.2125C3.47382 21.039 7.42993 23.6663 11.9997 23.6663ZM0.82414 15.3598C1.35368 14.9443 1.98008 14.6362 2.66634 14.4708V14.158C2.66634 12.2216 3.95615 10.5714 5.76411 9.94051H5.56459V9.49134C5.56459 8.00293 4.29449 6.79634 2.72774 6.79634C2.25037 6.79634 1.80053 6.90836 1.40576 7.10624C0.717214 8.5944 0.333008 10.2522 0.333008 11.9997C0.333008 13.1678 0.504669 14.2957 0.82414 15.3598ZM4.55757 14.3854C5.97029 14.5918 7.17683 15.3923 7.88565 16.5098C8.43738 15.6399 9.29065 14.9622 10.308 14.6072H10.2313V14.158C10.2313 12.6696 8.96115 11.463 7.39441 11.463C5.82767 11.463 4.55757 12.6696 4.55757 14.158V14.3854ZM19.5523 11.8431C20.104 10.9733 20.9573 10.2955 21.9747 9.94051H21.7751V9.49134C21.7751 8.00293 20.505 6.79634 18.9383 6.79634C17.3715 6.79634 16.1014 8.00293 16.1014 9.49134V9.70238C17.5669 9.87922 18.823 10.6934 19.5523 11.8431ZM13.6699 9.94051H13.8694C12.852 10.2955 11.9988 10.9733 11.447 11.8431C10.7178 10.6934 9.46165 9.87922 7.99617 9.70238V9.49134C7.99617 8.00293 9.26627 6.79634 10.833 6.79634C12.3998 6.79634 13.6699 8.00293 13.6699 9.49134V9.94051ZM2.6652 5.00006C4.79366 2.16613 8.18259 0.333008 11.9997 0.333008C16.3098 0.333008 20.0741 2.67032 22.0941 6.14662C21.2572 5.43346 20.1511 4.99967 18.9383 4.99967C17.2184 4.99967 15.713 5.87208 14.8857 7.17648C14.0583 5.87208 12.5529 4.99967 10.833 4.99967C9.11312 4.99967 7.60772 5.87208 6.78038 7.17648C5.95304 5.87208 4.44764 4.99967 2.72774 4.99967C2.70686 4.99967 2.68601 4.9998 2.6652 5.00006Z" fill="#FCFCFC"/>
</svg>
