<svg width="62" height="15" viewBox="0 0 62 15" fill="none" xmlns="http://www.w3.org/2000/svg">
<path d="M5.86447 14.5548C4.85095 14.5548 3.87641 14.3915 2.94086 14.0648C2.01829 13.7381 1.30363 13.3069 0.796875 12.7712L1.36211 11.654C1.85587 12.1505 2.51206 12.5556 3.33067 12.8692C4.14928 13.1697 4.99388 13.32 5.86447 13.32C7.08589 13.32 8.00195 13.0979 8.61266 12.6536C9.22337 12.1963 9.52873 11.6083 9.52873 10.8896C9.52873 10.3408 9.35981 9.90307 9.02197 9.5764C8.69712 9.24974 8.29432 9.00147 7.81354 8.8316C7.33277 8.64867 6.66359 8.45267 5.806 8.24361C4.77948 7.98227 3.96087 7.734 3.35016 7.49881C2.73945 7.25054 2.2132 6.87814 1.77141 6.38161C1.34262 5.88507 1.12822 5.21214 1.12822 4.36281C1.12822 3.67027 1.31013 3.04307 1.67396 2.48121C2.03779 1.90628 2.59652 1.44894 3.35016 1.10921C4.10381 0.769476 5.03936 0.599609 6.15683 0.599609C6.93646 0.599609 7.6966 0.710676 8.43725 0.932809C9.19089 1.14188 9.84058 1.43588 10.3863 1.81481L9.89905 2.97121C9.32732 2.59227 8.71661 2.31134 8.06692 2.12841C7.41723 1.93241 6.78053 1.83441 6.15683 1.83441C4.9614 1.83441 4.05833 2.06961 3.44762 2.54001C2.8499 2.99734 2.55104 3.59187 2.55104 4.32361C2.55104 4.87241 2.71347 5.31667 3.03831 5.65641C3.37615 5.98307 3.79195 6.23787 4.28572 6.42081C4.79248 6.59067 5.46816 6.78014 6.31276 6.9892C7.31328 7.23747 8.1189 7.48574 8.72961 7.73401C9.35331 7.96921 9.87956 8.33507 10.3084 8.8316C10.7372 9.31507 10.9516 9.97494 10.9516 10.8112C10.9516 11.5037 10.7631 12.1375 10.3863 12.7124C10.0225 13.2743 9.45726 13.7251 8.69063 14.0648C7.92399 14.3915 6.98194 14.5548 5.86447 14.5548Z" fill="url(#paint0_linear_5364_4101)"/>
<path d="M33.5208 0.717209L28.921 14.4372H27.4007L23.4051 2.73601L19.39 14.4372H17.8893L13.2894 0.717209H14.7707L18.7079 12.5164L22.7814 0.717209H24.1263L28.1414 12.5752L32.137 0.717209H33.5208Z" fill="url(#paint1_linear_5364_4101)"/>
<path d="M44.9991 10.772H37.3977L35.7605 14.4372H34.2597L40.4968 0.717209H41.9196L48.1566 14.4372H46.6363L44.9991 10.772ZM44.4729 9.596L41.1984 2.22641L37.924 9.596H44.4729Z" fill="url(#paint2_linear_5364_4101)"/>
<path d="M56.2163 0.717209C57.9574 0.717209 59.3218 1.13534 60.3093 1.97161C61.2968 2.80787 61.7906 3.95774 61.7906 5.42121C61.7906 6.88467 61.2968 8.03454 60.3093 8.8708C59.3218 9.694 57.9574 10.1056 56.2163 10.1056H52.552V14.4372H51.1097V0.717209H56.2163ZM56.1773 8.8316C57.5286 8.8316 58.5616 8.5376 59.2763 7.9496C59.991 7.34854 60.3483 6.50574 60.3483 5.42121C60.3483 4.31054 59.991 3.46121 59.2763 2.87321C58.5616 2.27214 57.5286 1.97161 56.1773 1.97161H52.552V8.8316H56.1773Z" fill="url(#paint3_linear_5364_4101)"/>
<defs>
<linearGradient id="paint0_linear_5364_4101" x1="31.2937" y1="0.599609" x2="31.2937" y2="14.5548" gradientUnits="userSpaceOnUse">
<stop stop-color="#5F47EE"/>
<stop offset="1" stop-color="#89FFE3"/>
</linearGradient>
<linearGradient id="paint1_linear_5364_4101" x1="31.2937" y1="0.599609" x2="31.2937" y2="14.5548" gradientUnits="userSpaceOnUse">
<stop stop-color="#5F47EE"/>
<stop offset="1" stop-color="#89FFE3"/>
</linearGradient>
<linearGradient id="paint2_linear_5364_4101" x1="31.2937" y1="0.599609" x2="31.2937" y2="14.5548" gradientUnits="userSpaceOnUse">
<stop stop-color="#5F47EE"/>
<stop offset="1" stop-color="#89FFE3"/>
</linearGradient>
<linearGradient id="paint3_linear_5364_4101" x1="31.2937" y1="0.599609" x2="31.2937" y2="14.5548" gradientUnits="userSpaceOnUse">
<stop stop-color="#5F47EE"/>
<stop offset="1" stop-color="#89FFE3"/>
</linearGradient>
</defs>
</svg>
